<?xml version="1.0" encoding="utf-8" standalone="no"?>
<!DOCTYPE svg PUBLIC "-//W3C//DTD SVG 1.1//EN"
  "http://www.w3.org/Graphics/SVG/1.1/DTD/svg11.dtd">
<svg xmlns:xlink="http://www.w3.org/1999/xlink" width="685.387969pt" height="252.879141pt" viewBox="0 0 685.387969 252.879141" xmlns="http://www.w3.org/2000/svg" version="1.1">
 <metadata>
  <rdf:RDF xmlns:dc="http://purl.org/dc/elements/1.1/" xmlns:cc="http://creativecommons.org/ns#" xmlns:rdf="http://www.w3.org/1999/02/22-rdf-syntax-ns#">
   <cc:Work>
    <dc:type rdf:resource="http://purl.org/dc/dcmitype/StillImage"/>
    <dc:date>2026-09-29T10:54:31.992379</dc:date>
    <dc:format>image/svg+xml</dc:format>
    <dc:creator>
     <cc:Agent>
      <dc:title>Matplotlib v3.10.6, https://matplotlib.org/</dc:title>
     </cc:Agent>
    </dc:creator>
   </cc:Work>
  </rdf:RDF>
 </metadata>
 <defs>
  <style type="text/css">*{stroke-linejoin: round; stroke-linecap: butt}</style>
 </defs>
 <g id="figure_1">
  <g id="patch_1">
   <path d="M 0 252.879141 
L 685.387969 252.879141 
L 685.387969 0 
L 0 0 
L 0 252.879141 
z
" style="fill: none"/>
  </g>
  <g id="axes_1">
   <g id="patch_2">
    <path d="M 52.640469 217.258516 
L 347.340469 217.258516 
L 347.340469 20.418516 
L 52.640469 20.418516 
L 52.640469 217.258516 
z
" style="fill: none"/>
   </g>
   <g id="matplotlib.axis_1">
    <g id="xtick_1">
     <g id="line2d_1">
      <path d="M 111.344473 217.258516 
L 111.344473 20.418516 
" clip-path="url(#p95aebbe575)" style="fill: none; stroke: #b0b0b0; stroke-opacity: 0.25; stroke-width: 0.8; stroke-linecap: square"/>
     </g>
     <g id="line2d_2">
      <defs>
       <path id="m512ea13428" d="M 0 0 
L 0 3.5 
" style="stroke: #c9d1d9; stroke-width: 0.8"/>
      </defs>
      <g>
       <use xlink:href="#m512ea13428" x="111.344473" y="217.258516" style="fill: #c9d1d9; stroke: #c9d1d9; stroke-width: 0.8"/>
      </g>
     </g>
     <g id="text_1">
      <text style="font-size: 9px; font-family: 'DejaVu Sans', 'Bitstream Vera Sans', 'Computer Modern Sans Serif', 'Lucida Grande', 'Verdana', 'Geneva', 'Lucid', 'Arial', 'Helvetica', 'Avant Garde', sans-serif; text-anchor: middle; fill: #c9d1d9" x="111.344473" y="231.097109" transform="rotate(-0 111.344473 231.097109)">200</text>
     </g>
    </g>
    <g id="xtick_2">
     <g id="line2d_3">
      <path d="M 170.343472 217.258516 
L 170.343472 20.418516 
" clip-path="url(#p95aebbe575)" style="fill: none; stroke: #b0b0b0; stroke-opacity: 0.25; stroke-width: 0.8; stroke-linecap: square"/>
     </g>
     <g id="line2d_4">
      <g>
       <use xlink:href="#m512ea13428" x="170.343472" y="217.258516" style="fill: #c9d1d9; stroke: #c9d1d9; stroke-width: 0.8"/>
      </g>
     </g>
     <g id="text_2">
      <text style="font-size: 9px; font-family: 'DejaVu Sans', 'Bitstream Vera Sans', 'Computer Modern Sans Serif', 'Lucida Grande', 'Verdana', 'Geneva', 'Lucid', 'Arial', 'Helvetica', 'Avant Garde', sans-serif; text-anchor: middle; fill: #c9d1d9" x="170.343472" y="231.097109" transform="rotate(-0 170.343472 231.097109)">400</text>
     </g>
    </g>
    <g id="xtick_3">
     <g id="line2d_5">
      <path d="M 229.342471 217.258516 
L 229.342471 20.418516 
" clip-path="url(#p95aebbe575)" style="fill: none; stroke: #b0b0b0; stroke-opacity: 0.25; stroke-width: 0.8; stroke-linecap: square"/>
     </g>
     <g id="line2d_6">
      <g>
       <use xlink:href="#m512ea13428" x="229.342471" y="217.258516" style="fill: #c9d1d9; stroke: #c9d1d9; stroke-width: 0.8"/>
      </g>
     </g>
     <g id="text_3">
      <text style="font-size: 9px; font-family: 'DejaVu Sans', 'Bitstream Vera Sans', 'Computer Modern Sans Serif', 'Lucida Grande', 'Verdana', 'Geneva', 'Lucid', 'Arial', 'Helvetica', 'Avant Garde', sans-serif; text-anchor: middle; fill: #c9d1d9" x="229.342471" y="231.097109" transform="rotate(-0 229.342471 231.097109)">600</text>
     </g>
    </g>
    <g id="xtick_4">
     <g id="line2d_7">
      <path d="M 288.34147 217.258516 
L 288.34147 20.418516 
" clip-path="url(#p95aebbe575)" style="fill: none; stroke: #b0b0b0; stroke-opacity: 0.25; stroke-width: 0.8; stroke-linecap: square"/>
     </g>
     <g id="line2d_8">
      <g>
       <use xlink:href="#m512ea13428" x="288.34147" y="217.258516" style="fill: #c9d1d9; stroke: #c9d1d9; stroke-width: 0.8"/>
      </g>
     </g>
     <g id="text_4">
      <text style="font-size: 9px; font-family: 'DejaVu Sans', 'Bitstream Vera Sans', 'Computer Modern Sans Serif', 'Lucida Grande', 'Verdana', 'Geneva', 'Lucid', 'Arial', 'Helvetica', 'Avant Garde', sans-serif; text-anchor: middle; fill: #c9d1d9" x="288.34147" y="231.097109" transform="rotate(-0 288.34147 231.097109)">800</text>
     </g>
    </g>
    <g id="xtick_5">
     <g id="line2d_9">
      <path d="M 347.340469 217.258516 
L 347.340469 20.418516 
" clip-path="url(#p95aebbe575)" style="fill: none; stroke: #b0b0b0; stroke-opacity: 0.25; stroke-width: 0.8; stroke-linecap: square"/>
     </g>
     <g id="line2d_10">
      <g>
       <use xlink:href="#m512ea13428" x="347.340469" y="217.258516" style="fill: #c9d1d9; stroke: #c9d1d9; stroke-width: 0.8"/>
      </g>
     </g>
     <g id="text_5">
      <text style="font-size: 9px; font-family: 'DejaVu Sans', 'Bitstream Vera Sans', 'Computer Modern Sans Serif', 'Lucida Grande', 'Verdana', 'Geneva', 'Lucid', 'Arial', 'Helvetica', 'Avant Garde', sans-serif; text-anchor: middle; fill: #c9d1d9" x="347.340469" y="231.097109" transform="rotate(-0 347.340469 231.097109)">1000</text>
     </g>
    </g>
    <g id="text_6">
     <text style="font-size: 9px; font-family: 'DejaVu Sans', 'Bitstream Vera Sans', 'Computer Modern Sans Serif', 'Lucida Grande', 'Verdana', 'Geneva', 'Lucid', 'Arial', 'Helvetica', 'Avant Garde', sans-serif; text-anchor: middle; fill: #c9d1d9" x="199.990469" y="243.807422" transform="rotate(-0 199.990469 243.807422)">equivalent evaluations</text>
    </g>
   </g>
   <g id="matplotlib.axis_2">
    <g id="ytick_1">
     <g id="line2d_11">
      <path d="M 52.640469 217.258516 
L 347.340469 217.258516 
" clip-path="url(#p95aebbe575)" style="fill: none; stroke: #b0b0b0; stroke-opacity: 0.25; stroke-width: 0.8; stroke-linecap: square"/>
     </g>
     <g id="line2d_12">
      <defs>
       <path id="m25fc4cca3b" d="M 0 0 
L -3.5 0 
" style="stroke: #c9d1d9; stroke-width: 0.8"/>
      </defs>
      <g>
       <use xlink:href="#m25fc4cca3b" x="52.640469" y="217.258516" style="fill: #c9d1d9; stroke: #c9d1d9; stroke-width: 0.8"/>
      </g>
     </g>
     <g id="text_7">
      <text style="font-size: 9px; font-family: 'DejaVu Sans', 'Bitstream Vera Sans', 'Computer Modern Sans Serif', 'Lucida Grande', 'Verdana', 'Geneva', 'Lucid', 'Arial', 'Helvetica', 'Avant Garde', sans-serif; text-anchor: end; fill: #c9d1d9" x="45.640469" y="220.677812" transform="rotate(-0 45.640469 220.677812)">0%</text>
     </g>
    </g>
    <g id="ytick_2">
     <g id="line2d_13">
      <path d="M 52.640469 178.662437 
L 347.340469 178.662437 
" clip-path="url(#p95aebbe575)" style="fill: none; stroke: #b0b0b0; stroke-opacity: 0.25; stroke-width: 0.8; stroke-linecap: square"/>
     </g>
     <g id="line2d_14">
      <g>
       <use xlink:href="#m25fc4cca3b" x="52.640469" y="178.662437" style="fill: #c9d1d9; stroke: #c9d1d9; stroke-width: 0.8"/>
      </g>
     </g>
     <g id="text_8">
      <text style="font-size: 9px; font-family: 'DejaVu Sans', 'Bitstream Vera Sans', 'Computer Modern Sans Serif', 'Lucida Grande', 'Verdana', 'Geneva', 'Lucid', 'Arial', 'Helvetica', 'Avant Garde', sans-serif; text-anchor: end; fill: #c9d1d9" x="45.640469" y="182.081734" transform="rotate(-0 45.640469 182.081734)">20%</text>
     </g>
    </g>
    <g id="ytick_3">
     <g id="line2d_15">
      <path d="M 52.640469 140.066359 
L 347.340469 140.066359 
" clip-path="url(#p95aebbe575)" style="fill: none; stroke: #b0b0b0; stroke-opacity: 0.25; stroke-width: 0.8; stroke-linecap: square"/>
     </g>
     <g id="line2d_16">
      <g>
       <use xlink:href="#m25fc4cca3b" x="52.640469" y="140.066359" style="fill: #c9d1d9; stroke: #c9d1d9; stroke-width: 0.8"/>
      </g>
     </g>
     <g id="text_9">
      <text style="font-size: 9px; font-family: 'DejaVu Sans', 'Bitstream Vera Sans', 'Computer Modern Sans Serif', 'Lucida Grande', 'Verdana', 'Geneva', 'Lucid', 'Arial', 'Helvetica', 'Avant Garde', sans-serif; text-anchor: end; fill: #c9d1d9" x="45.640469" y="143.485656" transform="rotate(-0 45.640469 143.485656)">40%</text>
     </g>
    </g>
    <g id="ytick_4">
     <g id="line2d_17">
      <path d="M 52.640469 101.47028 
L 347.340469 101.47028 
" clip-path="url(#p95aebbe575)" style="fill: none; stroke: #b0b0b0; stroke-opacity: 0.25; stroke-width: 0.8; stroke-linecap: square"/>
     </g>
     <g id="line2d_18">
      <g>
       <use xlink:href="#m25fc4cca3b" x="52.640469" y="101.47028" style="fill: #c9d1d9; stroke: #c9d1d9; stroke-width: 0.8"/>
      </g>
     </g>
     <g id="text_10">
      <text style="font-size: 9px; font-family: 'DejaVu Sans', 'Bitstream Vera Sans', 'Computer Modern Sans Serif', 'Lucida Grande', 'Verdana', 'Geneva', 'Lucid', 'Arial', 'Helvetica', 'Avant Garde', sans-serif; text-anchor: end; fill: #c9d1d9" x="45.640469" y="104.889577" transform="rotate(-0 45.640469 104.889577)">60%</text>
     </g>
    </g>
    <g id="ytick_5">
     <g id="line2d_19">
      <path d="M 52.640469 62.874202 
L 347.340469 62.874202 
" clip-path="url(#p95aebbe575)" style="fill: none; stroke: #b0b0b0; stroke-opacity: 0.25; stroke-width: 0.8; stroke-linecap: square"/>
     </g>
     <g id="line2d_20">
      <g>
       <use xlink:href="#m25fc4cca3b" x="52.640469" y="62.874202" style="fill: #c9d1d9; stroke: #c9d1d9; stroke-width: 0.8"/>
      </g>
     </g>
     <g id="text_11">
      <text style="font-size: 9px; font-family: 'DejaVu Sans', 'Bitstream Vera Sans', 'Computer Modern Sans Serif', 'Lucida Grande', 'Verdana', 'Geneva', 'Lucid', 'Arial', 'Helvetica', 'Avant Garde', sans-serif; text-anchor: end; fill: #c9d1d9" x="45.640469" y="66.293499" transform="rotate(-0 45.640469 66.293499)">80%</text>
     </g>
    </g>
    <g id="ytick_6">
     <g id="line2d_21">
      <path d="M 52.640469 24.278123 
L 347.340469 24.278123 
" clip-path="url(#p95aebbe575)" style="fill: none; stroke: #b0b0b0; stroke-opacity: 0.25; stroke-width: 0.8; stroke-linecap: square"/>
     </g>
     <g id="line2d_22">
      <g>
       <use xlink:href="#m25fc4cca3b" x="52.640469" y="24.278123" style="fill: #c9d1d9; stroke: #c9d1d9; stroke-width: 0.8"/>
      </g>
     </g>
     <g id="text_12">
      <text style="font-size: 9px; font-family: 'DejaVu Sans', 'Bitstream Vera Sans', 'Computer Modern Sans Serif', 'Lucida Grande', 'Verdana', 'Geneva', 'Lucid', 'Arial', 'Helvetica', 'Avant Garde', sans-serif; text-anchor: end; fill: #c9d1d9" x="45.640469" y="27.69742" transform="rotate(-0 45.640469 27.69742)">100%</text>
     </g>
    </g>
    <g id="text_13">
     <text style="font-size: 9px; font-family: 'DejaVu Sans', 'Bitstream Vera Sans', 'Computer Modern Sans Serif', 'Lucida Grande', 'Verdana', 'Geneva', 'Lucid', 'Arial', 'Helvetica', 'Avant Garde', sans-serif; text-anchor: middle; fill: #c9d1d9" x="14.038594" y="118.838516" transform="rotate(-90 14.038594 118.838516)">targets reached</text>
    </g>
   </g>
   <g id="line2d_23">
    <path d="M 52.640469 194.58332 
L 53.230459 194.58332 
L 53.230459 192.653516 
L 53.820449 192.653516 
L 53.820449 188.311457 
L 54.115444 188.311457 
L 54.115444 174.802829 
L 54.410439 174.802829 
L 54.410439 174.320378 
L 54.705434 174.320378 
L 54.705434 154.057437 
L 55.295424 154.057437 
L 55.295424 140.066359 
L 55.590419 140.066359 
L 55.590419 136.206751 
L 56.475404 136.206751 
L 56.475404 132.829594 
L 57.065394 132.829594 
L 57.065394 127.040182 
L 57.360389 127.040182 
L 57.360389 120.285869 
L 58.245374 120.285869 
L 58.245374 119.803418 
L 58.835364 119.803418 
L 58.835364 117.873614 
L 70.340168 117.873614 
L 70.340168 117.391163 
L 74.470098 117.391163 
L 74.470098 113.531555 
L 74.765093 113.531555 
L 74.765093 109.671947 
L 75.945073 109.671947 
L 75.945073 109.189496 
L 92.759788 109.189496 
L 92.759788 108.224594 
L 93.054783 108.224594 
L 93.054783 107.742143 
L 93.349778 107.742143 
L 93.349778 101.952731 
L 93.939768 101.952731 
L 93.939768 96.16332 
L 94.234763 96.16332 
L 94.234763 86.996751 
L 94.529758 86.996751 
L 94.529758 83.137143 
L 94.824753 83.137143 
L 94.824753 62.391751 
L 95.119748 62.391751 
L 95.119748 60.461947 
L 95.414743 60.461947 
L 95.414743 58.532143 
L 96.594723 58.532143 
L 96.594723 56.602339 
L 97.184713 56.602339 
L 97.184713 56.119888 
L 97.774703 56.119888 
L 97.774703 55.154986 
L 98.954683 55.154986 
L 98.954683 50.812927 
L 99.249678 50.812927 
L 99.249678 46.470869 
L 99.544673 46.470869 
L 99.544673 42.611261 
L 100.724653 42.611261 
L 100.724653 40.199006 
L 101.019648 40.199006 
L 101.019648 34.409594 
L 101.609638 34.409594 
L 101.609638 33.444692 
L 102.199628 33.444692 
L 102.199628 31.514888 
L 102.494623 31.514888 
L 102.494623 29.585084 
L 102.789618 29.585084 
L 102.789618 29.102633 
L 103.084613 29.102633 
L 103.084613 28.620182 
L 105.149578 28.620182 
L 105.149578 27.65528 
L 106.329558 27.65528 
L 106.329558 27.172829 
L 106.624553 27.172829 
L 106.624553 26.690378 
L 347.340469 26.690378 
L 347.340469 26.690378 
" clip-path="url(#p95aebbe575)" style="fill: none; stroke: #3987e5; stroke-width: 2.2; stroke-linecap: square"/>
   </g>
   <g id="line2d_24">
    <path d="M 52.640469 203.749888 
L 52.935464 203.749888 
L 52.935464 202.784986 
L 53.820449 202.784986 
L 53.820449 193.618418 
L 54.115444 193.618418 
L 54.115444 190.241261 
L 55.000429 190.241261 
L 55.000429 189.276359 
L 55.590419 189.276359 
L 55.590419 188.793908 
L 55.885414 188.793908 
L 55.885414 187.829006 
L 56.475404 187.829006 
L 56.475404 186.381653 
L 57.065394 186.381653 
L 57.065394 185.899202 
L 57.360389 185.899202 
L 57.360389 185.416751 
L 57.655384 185.416751 
L 57.655384 184.451849 
L 58.245374 184.451849 
L 58.245374 183.004496 
L 58.835364 183.004496 
L 58.835364 182.522045 
L 59.720349 182.522045 
L 59.720349 182.039594 
L 60.015344 182.039594 
L 60.015344 181.074692 
L 60.605334 181.074692 
L 60.605334 180.592241 
L 60.900329 180.592241 
L 60.900329 179.627339 
L 61.195324 179.627339 
L 61.195324 179.144888 
L 61.490319 179.144888 
L 61.490319 178.662437 
L 61.785314 178.662437 
L 61.785314 171.908123 
L 62.080309 171.908123 
L 62.080309 170.943222 
L 62.965294 170.943222 
L 62.965294 168.530967 
L 63.555284 168.530967 
L 63.555284 168.048516 
L 64.440269 168.048516 
L 64.440269 167.566065 
L 66.505234 167.566065 
L 66.505234 167.083614 
L 66.800229 167.083614 
L 66.800229 166.601163 
L 67.980208 166.601163 
L 67.980208 162.741555 
L 68.865193 162.741555 
L 68.865193 157.434594 
L 69.160188 157.434594 
L 69.160188 155.022339 
L 70.045173 155.022339 
L 70.045173 151.645182 
L 70.340168 151.645182 
L 70.340168 148.750476 
L 70.930158 148.750476 
L 70.930158 148.268025 
L 71.225153 148.268025 
L 71.225153 147.785574 
L 71.520148 147.785574 
L 71.520148 145.855771 
L 72.110138 145.855771 
L 72.110138 140.066359 
L 72.700128 140.066359 
L 72.700128 139.583908 
L 73.290118 139.583908 
L 73.290118 136.689202 
L 74.175103 136.689202 
L 74.175103 136.206751 
L 75.060088 136.206751 
L 75.060088 133.794496 
L 75.650078 133.794496 
L 75.650078 133.312045 
L 77.420048 133.312045 
L 77.420048 132.829594 
L 77.715043 132.829594 
L 77.715043 132.347143 
L 80.075003 132.347143 
L 80.075003 128.005084 
L 82.139968 128.005084 
L 82.139968 126.07528 
L 82.729958 126.07528 
L 82.729958 118.838516 
L 83.319948 118.838516 
L 83.319948 118.356065 
L 85.679908 118.356065 
L 85.679908 117.391163 
L 86.859888 117.391163 
L 86.859888 113.049104 
L 88.039868 113.049104 
L 88.039868 112.566653 
L 98.069698 112.566653 
L 98.069698 108.224594 
L 99.544673 108.224594 
L 99.544673 107.742143 
L 101.904633 107.742143 
L 101.904633 107.259692 
L 102.789618 107.259692 
L 102.789618 106.777241 
L 107.804533 106.777241 
L 107.804533 104.847437 
L 108.099528 104.847437 
L 108.099528 102.435182 
L 108.394523 102.435182 
L 108.394523 100.505378 
L 122.849278 100.505378 
L 122.849278 100.022927 
L 123.734263 100.022927 
L 123.734263 99.058025 
L 124.324253 99.058025 
L 124.324253 94.715967 
L 125.209238 94.715967 
L 125.209238 93.268614 
L 126.094223 93.268614 
L 126.094223 92.786163 
L 126.979207 92.786163 
L 126.979207 92.303712 
L 127.864192 92.303712 
L 127.864192 91.33881 
L 128.454182 91.33881 
L 128.454182 90.373908 
L 130.814142 90.373908 
L 130.814142 87.479202 
L 139.368997 87.479202 
L 139.368997 86.996751 
L 141.138967 86.996751 
L 141.138967 81.68979 
L 143.203932 81.68979 
L 143.203932 79.759986 
L 143.793922 79.759986 
L 143.793922 79.277535 
L 144.088917 79.277535 
L 144.088917 75.900378 
L 144.973902 75.900378 
L 144.973902 73.970574 
L 160.018647 73.970574 
L 160.018647 73.488123 
L 163.263592 73.488123 
L 163.263592 71.55832 
L 172.113442 71.55832 
L 172.113442 68.181163 
L 177.423352 68.181163 
L 177.423352 66.251359 
L 204.267896 66.251359 
L 204.267896 65.286457 
L 206.037866 65.286457 
L 206.037866 64.804006 
L 206.922851 64.804006 
L 206.922851 64.321555 
L 208.692821 64.321555 
L 208.692821 62.874202 
L 209.577806 62.874202 
L 209.577806 62.391751 
L 210.167796 62.391751 
L 210.167796 61.9093 
L 211.642771 61.9093 
L 211.642771 61.426849 
L 234.357386 61.426849 
L 234.357386 60.944398 
L 242.027256 60.944398 
L 242.027256 59.014594 
L 252.647075 59.014594 
L 252.647075 55.154986 
L 253.827055 55.154986 
L 253.827055 54.190084 
L 256.777005 54.190084 
L 256.777005 53.225182 
L 259.726955 53.225182 
L 259.726955 50.812927 
L 261.79192 50.812927 
L 261.79192 50.330476 
L 293.65138 50.330476 
L 293.65138 49.848025 
L 294.536365 49.848025 
L 294.536365 49.365574 
L 295.716345 49.365574 
L 295.716345 48.883123 
L 296.60133 48.883123 
L 296.60133 47.918222 
L 298.3713 47.918222 
L 298.3713 46.470869 
L 299.55128 46.470869 
L 299.55128 45.505967 
L 300.436265 45.505967 
L 300.436265 45.023516 
L 316.660989 45.023516 
L 316.660989 44.058614 
L 320.200929 44.058614 
L 320.200929 43.093712 
L 322.265894 43.093712 
L 322.265894 42.12881 
L 323.150879 42.12881 
L 323.150879 41.163908 
L 324.035864 41.163908 
L 324.035864 40.681457 
L 325.215844 40.681457 
L 325.215844 40.199006 
L 347.340469 40.199006 
L 347.340469 40.199006 
" clip-path="url(#p95aebbe575)" style="fill: none; stroke: #d95926; stroke-width: 1.5; stroke-linecap: square"/>
   </g>
   <g id="line2d_25">
    <path d="M 52.640469 202.784986 
L 52.935464 202.784986 
L 52.935464 198.925378 
L 53.230459 198.925378 
L 53.230459 194.100869 
L 53.525454 194.100869 
L 53.525454 189.75881 
L 53.820449 189.75881 
L 53.820449 182.522045 
L 55.000429 182.522045 
L 55.000429 179.144888 
L 55.295424 179.144888 
L 55.295424 165.636261 
L 55.590419 165.636261 
L 55.590419 153.092535 
L 56.180409 153.092535 
L 56.180409 149.232927 
L 56.475404 149.232927 
L 56.475404 148.750476 
L 56.770399 148.750476 
L 56.770399 140.54881 
L 58.245374 140.54881 
L 58.245374 140.066359 
L 59.425354 140.066359 
L 59.425354 138.619006 
L 60.015344 138.619006 
L 60.015344 137.654104 
L 61.195324 137.654104 
L 61.195324 137.171653 
L 61.785314 137.171653 
L 61.785314 133.312045 
L 63.260289 133.312045 
L 63.260289 131.864692 
L 65.030259 131.864692 
L 65.030259 126.557731 
L 65.620249 126.557731 
L 65.620249 121.733222 
L 68.275203 121.733222 
L 68.275203 117.391163 
L 68.865193 117.391163 
L 68.865193 116.426261 
L 69.455183 116.426261 
L 69.455183 114.978908 
L 69.750178 114.978908 
L 69.750178 110.154398 
L 71.225153 110.154398 
L 71.225153 109.671947 
L 71.520148 109.671947 
L 71.520148 107.742143 
L 72.110138 107.742143 
L 72.110138 105.329888 
L 72.700128 105.329888 
L 72.700128 104.847437 
L 74.175103 104.847437 
L 74.175103 103.400084 
L 76.240068 103.400084 
L 76.240068 102.917633 
L 77.420048 102.917633 
L 77.420048 102.435182 
L 80.959988 102.435182 
L 80.959988 100.987829 
L 83.024953 100.987829 
L 83.024953 100.505378 
L 83.319948 100.505378 
L 83.319948 100.022927 
L 90.399828 100.022927 
L 90.399828 99.540476 
L 91.874803 99.540476 
L 91.874803 99.058025 
L 99.544673 99.058025 
L 99.544673 98.093123 
L 100.429658 98.093123 
L 100.429658 97.610672 
L 103.969598 97.610672 
L 103.969598 97.128222 
L 106.329558 97.128222 
L 106.329558 94.233516 
L 109.869498 94.233516 
L 109.869498 93.751065 
L 111.639468 93.751065 
L 111.639468 91.821261 
L 111.934463 91.821261 
L 111.934463 91.33881 
L 112.524453 91.33881 
L 112.524453 90.856359 
L 116.064393 90.856359 
L 116.064393 90.373908 
L 117.539368 90.373908 
L 117.539368 89.891457 
L 118.129358 89.891457 
L 118.129358 89.409006 
L 119.014343 89.409006 
L 119.014343 88.926555 
L 119.899328 88.926555 
L 119.899328 88.444104 
L 120.489318 88.444104 
L 120.489318 87.961653 
L 121.079308 87.961653 
L 121.079308 86.996751 
L 124.029258 86.996751 
L 124.029258 86.031849 
L 124.324253 86.031849 
L 124.324253 83.619594 
L 126.094223 83.619594 
L 126.094223 81.207339 
L 127.864192 81.207339 
L 127.864192 80.724888 
L 130.519147 80.724888 
L 130.519147 80.242437 
L 131.109137 80.242437 
L 131.109137 79.759986 
L 133.469097 79.759986 
L 133.469097 77.347731 
L 134.354082 77.347731 
L 134.354082 75.417927 
L 142.613942 75.417927 
L 142.613942 74.935476 
L 143.498927 74.935476 
L 143.498927 74.453025 
L 146.448877 74.453025 
L 146.448877 73.970574 
L 147.038867 73.970574 
L 147.038867 73.488123 
L 147.333862 73.488123 
L 147.333862 73.005672 
L 147.628857 73.005672 
L 147.628857 71.55832 
L 149.103832 71.55832 
L 149.103832 71.075869 
L 150.578807 71.075869 
L 150.578807 70.593418 
L 152.348777 70.593418 
L 152.348777 70.110967 
L 152.643772 70.110967 
L 152.643772 69.628516 
L 156.478707 69.628516 
L 156.478707 69.146065 
L 157.953682 69.146065 
L 157.953682 67.216261 
L 165.328557 67.216261 
L 165.328557 66.73381 
L 207.217846 66.73381 
L 207.217846 65.768908 
L 347.340469 65.768908 
L 347.340469 65.768908 
" clip-path="url(#p95aebbe575)" style="fill: none; stroke: #199e70; stroke-width: 1.5; stroke-linecap: square"/>
   </g>
   <g id="line2d_26">
    <path d="M 52.640469 188.311457 
L 53.230459 188.311457 
L 53.230459 183.486947 
L 54.115444 183.486947 
L 54.115444 178.662437 
L 54.410439 178.662437 
L 54.410439 164.188908 
L 57.065394 164.188908 
L 57.065394 154.539888 
L 59.130359 154.539888 
L 59.130359 152.127633 
L 59.425354 152.127633 
L 59.425354 140.066359 
L 60.015344 140.066359 
L 60.015344 132.829594 
L 63.260289 132.829594 
L 63.260289 113.531555 
L 63.555284 113.531555 
L 63.555284 111.1193 
L 67.390218 111.1193 
L 67.390218 108.707045 
L 69.160188 108.707045 
L 69.160188 106.29479 
L 69.455183 106.29479 
L 69.455183 84.584496 
L 87.744873 84.584496 
L 87.744873 82.172241 
L 93.054783 82.172241 
L 93.054783 67.698712 
L 93.644773 67.698712 
L 93.644773 65.286457 
L 106.624553 65.286457 
L 106.624553 62.874202 
L 114.589418 62.874202 
L 114.589418 60.461947 
L 122.259288 60.461947 
L 122.259288 55.637437 
L 127.569197 55.637437 
L 127.569197 53.225182 
L 130.519147 53.225182 
L 130.519147 50.812927 
L 135.829057 50.812927 
L 135.829057 45.988418 
L 155.593722 45.988418 
L 155.593722 41.163908 
L 159.133662 41.163908 
L 159.133662 31.514888 
L 175.063392 31.514888 
L 175.063392 29.102633 
L 181.848277 29.102633 
L 181.848277 26.690378 
L 347.340469 26.690378 
L 347.340469 26.690378 
" clip-path="url(#p95aebbe575)" style="fill: none; stroke: #c98500; stroke-width: 1.5; stroke-linecap: square"/>
   </g>
   <g id="line2d_27">
    <path d="M 52.640469 214.36381 
L 52.935464 214.36381 
L 52.935464 206.644594 
L 53.230459 206.644594 
L 53.230459 205.679692 
L 53.525454 205.679692 
L 53.525454 203.749888 
L 53.820449 203.749888 
L 53.820449 197.960476 
L 54.410439 197.960476 
L 54.410439 194.58332 
L 55.295424 194.58332 
L 55.295424 193.618418 
L 55.590419 193.618418 
L 55.590419 185.416751 
L 55.885414 185.416751 
L 55.885414 181.557143 
L 56.180409 181.557143 
L 56.180409 178.662437 
L 56.475404 178.662437 
L 56.475404 176.732633 
L 56.770399 176.732633 
L 56.770399 172.390574 
L 57.065394 172.390574 
L 57.065394 168.530967 
L 57.360389 168.530967 
L 57.360389 160.3293 
L 57.655384 160.3293 
L 57.655384 156.952143 
L 57.950379 156.952143 
L 57.950379 156.469692 
L 58.540369 156.469692 
L 58.540369 152.127633 
L 59.130359 152.127633 
L 59.130359 149.715378 
L 59.425354 149.715378 
L 59.425354 142.961065 
L 60.605334 142.961065 
L 60.605334 142.478614 
L 60.900329 142.478614 
L 60.900329 132.829594 
L 61.195324 132.829594 
L 61.195324 132.347143 
L 61.490319 132.347143 
L 61.490319 127.040182 
L 62.080309 127.040182 
L 62.080309 125.592829 
L 62.375304 125.592829 
L 62.375304 122.698123 
L 63.260289 122.698123 
L 63.260289 114.496457 
L 63.850279 114.496457 
L 63.850279 110.636849 
L 64.440269 110.636849 
L 64.440269 110.154398 
L 65.030259 110.154398 
L 65.030259 107.742143 
L 65.620249 107.742143 
L 65.620249 102.917633 
L 65.915244 102.917633 
L 65.915244 100.987829 
L 68.275203 100.987829 
L 68.275203 97.610672 
L 70.635163 97.610672 
L 70.635163 90.856359 
L 73.290118 90.856359 
L 73.290118 86.996751 
L 74.470098 86.996751 
L 74.470098 83.137143 
L 75.060088 83.137143 
L 75.060088 81.68979 
L 76.240068 81.68979 
L 76.240068 80.242437 
L 77.715043 80.242437 
L 77.715043 77.830182 
L 79.485013 77.830182 
L 79.485013 77.347731 
L 80.075003 77.347731 
L 80.075003 76.86528 
L 81.549978 76.86528 
L 81.549978 75.417927 
L 85.679908 75.417927 
L 85.679908 73.488123 
L 93.349778 73.488123 
L 93.349778 69.628516 
L 94.234763 69.628516 
L 94.234763 67.698712 
L 95.414743 67.698712 
L 95.414743 63.356653 
L 110.164493 63.356653 
L 110.164493 60.944398 
L 112.229458 60.944398 
L 112.229458 59.979496 
L 115.474403 59.979496 
L 115.474403 58.049692 
L 121.669298 58.049692 
L 121.669298 55.637437 
L 129.929157 55.637437 
L 129.929157 54.190084 
L 130.814142 54.190084 
L 130.814142 52.26028 
L 171.523452 52.26028 
L 171.523452 51.777829 
L 186.863191 51.777829 
L 186.863191 51.295378 
L 195.713041 51.295378 
L 195.713041 50.812927 
L 199.842971 50.812927 
L 199.842971 50.812927 
" clip-path="url(#p95aebbe575)" style="fill: none; stroke: #d55181; stroke-width: 1.5; stroke-linecap: square"/>
   </g>
   <g id="line2d_28">
    <path d="M 199.842971 50.812927 
" clip-path="url(#p95aebbe575)" style="fill: none; stroke: #d55181; stroke-width: 1.5; stroke-linecap: square"/>
    <defs>
     <path id="mfc20bdc0fe" d="M 0 2 
C 0.530406 2 1.03916 1.789267 1.414214 1.414214 
C 1.789267 1.03916 2 0.530406 2 0 
C 2 -0.530406 1.789267 -1.03916 1.414214 -1.414214 
C 1.03916 -1.789267 0.530406 -2 0 -2 
C -0.530406 -2 -1.03916 -1.789267 -1.414214 -1.414214 
C -1.789267 -1.03916 -2 -0.530406 -2 0 
C -2 0.530406 -1.789267 1.03916 -1.414214 1.414214 
C -1.03916 1.789267 -0.530406 2 0 2 
z
" style="stroke: #d55181"/>
    </defs>
    <g clip-path="url(#p95aebbe575)">
     <use xlink:href="#mfc20bdc0fe" x="199.842971" y="50.812927" style="fill: #d55181; stroke: #d55181"/>
    </g>
   </g>
   <g id="patch_3">
    <path d="M 52.640469 217.258516 
L 52.640469 20.418516 
" style="fill: none; stroke: #c9d1d9; stroke-width: 0.8; stroke-linejoin: miter; stroke-linecap: square"/>
   </g>
   <g id="patch_4">
    <path d="M 52.640469 217.258516 
L 347.340469 217.258516 
" style="fill: none; stroke: #c9d1d9; stroke-width: 0.8; stroke-linejoin: miter; stroke-linecap: square"/>
   </g>
   <g id="text_14">
    <text style="font-size: 9.5px; font-family: 'DejaVu Sans', 'Bitstream Vera Sans', 'Computer Modern Sans Serif', 'Lucida Grande', 'Verdana', 'Geneva', 'Lucid', 'Arial', 'Helvetica', 'Avant Garde', sans-serif; text-anchor: middle; fill: #c9d1d9" x="199.990469" y="14.418516" transform="rotate(-0 199.990469 14.418516)">2 variables: best target the optimum on 4 of 4</text>
   </g>
   <g id="legend_1">
    <g id="line2d_29">
     <path d="M 202.374844 165.953984 
L 209.374844 165.953984 
L 209.374844 165.953984 
L 216.374844 165.953984 
L 216.374844 165.953984 
" style="fill: none; stroke: #3987e5; stroke-width: 2.2; stroke-linecap: square"/>
    </g>
    <g id="text_15">
     <text style="font-size: 7px; font-family: 'DejaVu Sans', 'Bitstream Vera Sans', 'Computer Modern Sans Serif', 'Lucida Grande', 'Verdana', 'Geneva', 'Lucid', 'Arial', 'Helvetica', 'Avant Garde', sans-serif; text-anchor: start; fill: #c9d1d9" x="221.974844" y="168.403984" transform="rotate(-0 221.974844 168.403984)">box subdivision: swept, 16 probes</text>
    </g>
    <g id="line2d_30">
     <path d="M 202.374844 176.228672 
L 209.374844 176.228672 
L 209.374844 176.228672 
L 216.374844 176.228672 
L 216.374844 176.228672 
" style="fill: none; stroke: #d95926; stroke-width: 1.5; stroke-linecap: square"/>
    </g>
    <g id="text_16">
     <text style="font-size: 7px; font-family: 'DejaVu Sans', 'Bitstream Vera Sans', 'Computer Modern Sans Serif', 'Lucida Grande', 'Verdana', 'Geneva', 'Lucid', 'Arial', 'Helvetica', 'Avant Garde', sans-serif; text-anchor: start; fill: #c9d1d9" x="221.974844" y="178.678672" transform="rotate(-0 221.974844 178.678672)">multistart</text>
    </g>
    <g id="line2d_31">
     <path d="M 202.374844 186.503359 
L 209.374844 186.503359 
L 209.374844 186.503359 
L 216.374844 186.503359 
L 216.374844 186.503359 
" style="fill: none; stroke: #199e70; stroke-width: 1.5; stroke-linecap: square"/>
    </g>
    <g id="text_17">
     <text style="font-size: 7px; font-family: 'DejaVu Sans', 'Bitstream Vera Sans', 'Computer Modern Sans Serif', 'Lucida Grande', 'Verdana', 'Geneva', 'Lucid', 'Arial', 'Helvetica', 'Avant Garde', sans-serif; text-anchor: start; fill: #c9d1d9" x="221.974844" y="188.953359" transform="rotate(-0 221.974844 188.953359)">CMA-ES</text>
    </g>
    <g id="line2d_32">
     <path d="M 202.374844 196.778047 
L 209.374844 196.778047 
L 209.374844 196.778047 
L 216.374844 196.778047 
L 216.374844 196.778047 
" style="fill: none; stroke: #c98500; stroke-width: 1.5; stroke-linecap: square"/>
    </g>
    <g id="text_18">
     <text style="font-size: 7px; font-family: 'DejaVu Sans', 'Bitstream Vera Sans', 'Computer Modern Sans Serif', 'Lucida Grande', 'Verdana', 'Geneva', 'Lucid', 'Arial', 'Helvetica', 'Avant Garde', sans-serif; text-anchor: start; fill: #c9d1d9" x="221.974844" y="199.228047" transform="rotate(-0 221.974844 199.228047)">DIRECT</text>
    </g>
    <g id="line2d_33">
     <path d="M 202.374844 207.052734 
L 209.374844 207.052734 
L 209.374844 207.052734 
L 216.374844 207.052734 
L 216.374844 207.052734 
" style="fill: none; stroke: #d55181; stroke-width: 1.5; stroke-linecap: square"/>
    </g>
    <g id="text_19">
     <text style="font-size: 7px; font-family: 'DejaVu Sans', 'Bitstream Vera Sans', 'Computer Modern Sans Serif', 'Lucida Grande', 'Verdana', 'Geneva', 'Lucid', 'Arial', 'Helvetica', 'Avant Garde', sans-serif; text-anchor: start; fill: #c9d1d9" x="221.974844" y="209.502734" transform="rotate(-0 221.974844 209.502734)">EGO</text>
    </g>
   </g>
  </g>
  <g id="axes_2">
   <g id="patch_5">
    <path d="M 372.035469 217.258516 
L 666.735469 217.258516 
L 666.735469 20.418516 
L 372.035469 20.418516 
L 372.035469 217.258516 
z
" style="fill: none"/>
   </g>
   <g id="matplotlib.axis_3">
    <g id="xtick_6">
     <g id="line2d_34">
      <path d="M 430.881127 217.258516 
L 430.881127 20.418516 
" clip-path="url(#p2a4ce01942)" style="fill: none; stroke: #b0b0b0; stroke-opacity: 0.25; stroke-width: 0.8; stroke-linecap: square"/>
     </g>
     <g id="line2d_35">
      <g>
       <use xlink:href="#m512ea13428" x="430.881127" y="217.258516" style="fill: #c9d1d9; stroke: #c9d1d9; stroke-width: 0.8"/>
      </g>
     </g>
     <g id="text_20">
      <text style="font-size: 9px; font-family: 'DejaVu Sans', 'Bitstream Vera Sans', 'Computer Modern Sans Serif', 'Lucida Grande', 'Verdana', 'Geneva', 'Lucid', 'Arial', 'Helvetica', 'Avant Garde', sans-serif; text-anchor: middle; fill: #c9d1d9" x="430.881127" y="231.097109" transform="rotate(-0 430.881127 231.097109)">500</text>
     </g>
    </g>
    <g id="xtick_7">
     <g id="line2d_36">
      <path d="M 489.844712 217.258516 
L 489.844712 20.418516 
" clip-path="url(#p2a4ce01942)" style="fill: none; stroke: #b0b0b0; stroke-opacity: 0.25; stroke-width: 0.8; stroke-linecap: square"/>
     </g>
     <g id="line2d_37">
      <g>
       <use xlink:href="#m512ea13428" x="489.844712" y="217.258516" style="fill: #c9d1d9; stroke: #c9d1d9; stroke-width: 0.8"/>
      </g>
     </g>
     <g id="text_21">
      <text style="font-size: 9px; font-family: 'DejaVu Sans', 'Bitstream Vera Sans', 'Computer Modern Sans Serif', 'Lucida Grande', 'Verdana', 'Geneva', 'Lucid', 'Arial', 'Helvetica', 'Avant Garde', sans-serif; text-anchor: middle; fill: #c9d1d9" x="489.844712" y="231.097109" transform="rotate(-0 489.844712 231.097109)">1000</text>
     </g>
    </g>
    <g id="xtick_8">
     <g id="line2d_38">
      <path d="M 548.808298 217.258516 
L 548.808298 20.418516 
" clip-path="url(#p2a4ce01942)" style="fill: none; stroke: #b0b0b0; stroke-opacity: 0.25; stroke-width: 0.8; stroke-linecap: square"/>
     </g>
     <g id="line2d_39">
      <g>
       <use xlink:href="#m512ea13428" x="548.808298" y="217.258516" style="fill: #c9d1d9; stroke: #c9d1d9; stroke-width: 0.8"/>
      </g>
     </g>
     <g id="text_22">
      <text style="font-size: 9px; font-family: 'DejaVu Sans', 'Bitstream Vera Sans', 'Computer Modern Sans Serif', 'Lucida Grande', 'Verdana', 'Geneva', 'Lucid', 'Arial', 'Helvetica', 'Avant Garde', sans-serif; text-anchor: middle; fill: #c9d1d9" x="548.808298" y="231.097109" transform="rotate(-0 548.808298 231.097109)">1500</text>
     </g>
    </g>
    <g id="xtick_9">
     <g id="line2d_40">
      <path d="M 607.771883 217.258516 
L 607.771883 20.418516 
" clip-path="url(#p2a4ce01942)" style="fill: none; stroke: #b0b0b0; stroke-opacity: 0.25; stroke-width: 0.8; stroke-linecap: square"/>
     </g>
     <g id="line2d_41">
      <g>
       <use xlink:href="#m512ea13428" x="607.771883" y="217.258516" style="fill: #c9d1d9; stroke: #c9d1d9; stroke-width: 0.8"/>
      </g>
     </g>
     <g id="text_23">
      <text style="font-size: 9px; font-family: 'DejaVu Sans', 'Bitstream Vera Sans', 'Computer Modern Sans Serif', 'Lucida Grande', 'Verdana', 'Geneva', 'Lucid', 'Arial', 'Helvetica', 'Avant Garde', sans-serif; text-anchor: middle; fill: #c9d1d9" x="607.771883" y="231.097109" transform="rotate(-0 607.771883 231.097109)">2000</text>
     </g>
    </g>
    <g id="xtick_10">
     <g id="line2d_42">
      <path d="M 666.735469 217.258516 
L 666.735469 20.418516 
" clip-path="url(#p2a4ce01942)" style="fill: none; stroke: #b0b0b0; stroke-opacity: 0.25; stroke-width: 0.8; stroke-linecap: square"/>
     </g>
     <g id="line2d_43">
      <g>
       <use xlink:href="#m512ea13428" x="666.735469" y="217.258516" style="fill: #c9d1d9; stroke: #c9d1d9; stroke-width: 0.8"/>
      </g>
     </g>
     <g id="text_24">
      <text style="font-size: 9px; font-family: 'DejaVu Sans', 'Bitstream Vera Sans', 'Computer Modern Sans Serif', 'Lucida Grande', 'Verdana', 'Geneva', 'Lucid', 'Arial', 'Helvetica', 'Avant Garde', sans-serif; text-anchor: middle; fill: #c9d1d9" x="666.735469" y="231.097109" transform="rotate(-0 666.735469 231.097109)">2500</text>
     </g>
    </g>
    <g id="text_25">
     <text style="font-size: 9px; font-family: 'DejaVu Sans', 'Bitstream Vera Sans', 'Computer Modern Sans Serif', 'Lucida Grande', 'Verdana', 'Geneva', 'Lucid', 'Arial', 'Helvetica', 'Avant Garde', sans-serif; text-anchor: middle; fill: #c9d1d9" x="519.385469" y="243.807422" transform="rotate(-0 519.385469 243.807422)">equivalent evaluations</text>
    </g>
   </g>
   <g id="matplotlib.axis_4">
    <g id="ytick_7">
     <g id="line2d_44">
      <path d="M 372.035469 217.258516 
L 666.735469 217.258516 
" clip-path="url(#p2a4ce01942)" style="fill: none; stroke: #b0b0b0; stroke-opacity: 0.25; stroke-width: 0.8; stroke-linecap: square"/>
     </g>
     <g id="line2d_45">
      <g>
       <use xlink:href="#m25fc4cca3b" x="372.035469" y="217.258516" style="fill: #c9d1d9; stroke: #c9d1d9; stroke-width: 0.8"/>
      </g>
     </g>
    </g>
    <g id="ytick_8">
     <g id="line2d_46">
      <path d="M 372.035469 178.662437 
L 666.735469 178.662437 
" clip-path="url(#p2a4ce01942)" style="fill: none; stroke: #b0b0b0; stroke-opacity: 0.25; stroke-width: 0.8; stroke-linecap: square"/>
     </g>
     <g id="line2d_47">
      <g>
       <use xlink:href="#m25fc4cca3b" x="372.035469" y="178.662437" style="fill: #c9d1d9; stroke: #c9d1d9; stroke-width: 0.8"/>
      </g>
     </g>
    </g>
    <g id="ytick_9">
     <g id="line2d_48">
      <path d="M 372.035469 140.066359 
L 666.735469 140.066359 
" clip-path="url(#p2a4ce01942)" style="fill: none; stroke: #b0b0b0; stroke-opacity: 0.25; stroke-width: 0.8; stroke-linecap: square"/>
     </g>
     <g id="line2d_49">
      <g>
       <use xlink:href="#m25fc4cca3b" x="372.035469" y="140.066359" style="fill: #c9d1d9; stroke: #c9d1d9; stroke-width: 0.8"/>
      </g>
     </g>
    </g>
    <g id="ytick_10">
     <g id="line2d_50">
      <path d="M 372.035469 101.47028 
L 666.735469 101.47028 
" clip-path="url(#p2a4ce01942)" style="fill: none; stroke: #b0b0b0; stroke-opacity: 0.25; stroke-width: 0.8; stroke-linecap: square"/>
     </g>
     <g id="line2d_51">
      <g>
       <use xlink:href="#m25fc4cca3b" x="372.035469" y="101.47028" style="fill: #c9d1d9; stroke: #c9d1d9; stroke-width: 0.8"/>
      </g>
     </g>
    </g>
    <g id="ytick_11">
     <g id="line2d_52">
      <path d="M 372.035469 62.874202 
L 666.735469 62.874202 
" clip-path="url(#p2a4ce01942)" style="fill: none; stroke: #b0b0b0; stroke-opacity: 0.25; stroke-width: 0.8; stroke-linecap: square"/>
     </g>
     <g id="line2d_53">
      <g>
       <use xlink:href="#m25fc4cca3b" x="372.035469" y="62.874202" style="fill: #c9d1d9; stroke: #c9d1d9; stroke-width: 0.8"/>
      </g>
     </g>
    </g>
    <g id="ytick_12">
     <g id="line2d_54">
      <path d="M 372.035469 24.278123 
L 666.735469 24.278123 
" clip-path="url(#p2a4ce01942)" style="fill: none; stroke: #b0b0b0; stroke-opacity: 0.25; stroke-width: 0.8; stroke-linecap: square"/>
     </g>
     <g id="line2d_55">
      <g>
       <use xlink:href="#m25fc4cca3b" x="372.035469" y="24.278123" style="fill: #c9d1d9; stroke: #c9d1d9; stroke-width: 0.8"/>
      </g>
     </g>
    </g>
   </g>
   <g id="line2d_56">
    <path d="M 372.035469 214.36381 
L 372.271323 214.36381 
L 372.271323 209.5393 
L 372.507177 209.5393 
L 372.507177 209.056849 
L 372.625105 209.056849 
L 372.625105 208.574398 
L 372.743032 208.574398 
L 372.743032 206.162143 
L 373.21474 206.162143 
L 373.21474 204.71479 
L 373.568522 204.71479 
L 373.568522 204.232339 
L 375.219502 204.232339 
L 375.219502 203.749888 
L 375.455357 203.749888 
L 375.455357 202.784986 
L 375.573284 202.784986 
L 375.573284 202.302535 
L 375.927065 202.302535 
L 375.927065 197.960476 
L 376.280847 197.960476 
L 376.280847 197.478025 
L 378.167682 197.478025 
L 378.167682 196.995574 
L 378.63939 196.995574 
L 378.63939 196.513123 
L 379.936589 196.513123 
L 379.936589 193.135967 
L 382.059278 193.135967 
L 382.059278 192.653516 
L 383.356477 192.653516 
L 383.356477 189.75881 
L 383.946113 189.75881 
L 383.946113 184.9343 
L 384.06404 184.9343 
L 384.06404 184.451849 
L 384.299895 184.451849 
L 384.299895 183.969398 
L 384.535749 183.969398 
L 384.535749 183.486947 
L 384.653676 183.486947 
L 384.653676 183.004496 
L 384.88953 183.004496 
L 384.88953 179.627339 
L 388.309418 179.627339 
L 388.309418 179.144888 
L 388.545273 179.144888 
L 388.545273 178.662437 
L 389.016981 178.662437 
L 389.016981 178.179986 
L 389.48869 178.179986 
L 389.48869 177.215084 
L 390.196253 177.215084 
L 390.196253 176.250182 
L 390.432107 176.250182 
L 390.432107 172.873025 
L 390.667962 172.873025 
L 390.667962 172.390574 
L 390.785889 172.390574 
L 390.785889 171.908123 
L 391.021743 171.908123 
L 391.021743 168.530967 
L 391.375525 168.530967 
L 391.375525 168.048516 
L 391.965161 168.048516 
L 391.965161 167.566065 
L 392.318942 167.566065 
L 392.318942 167.083614 
L 392.436869 167.083614 
L 392.436869 166.601163 
L 392.790651 166.601163 
L 392.790651 166.118712 
L 392.908578 166.118712 
L 392.908578 165.636261 
L 393.144432 165.636261 
L 393.144432 165.15381 
L 393.380287 165.15381 
L 393.380287 164.671359 
L 393.498214 164.671359 
L 393.498214 164.188908 
L 393.734068 164.188908 
L 393.734068 163.706457 
L 394.08785 163.706457 
L 394.08785 163.224006 
L 394.441631 163.224006 
L 394.441631 162.741555 
L 395.031267 162.741555 
L 395.031267 161.294202 
L 395.149194 161.294202 
L 395.149194 160.3293 
L 396.446393 160.3293 
L 396.446393 159.846849 
L 398.569082 159.846849 
L 398.569082 158.881947 
L 405.526785 158.881947 
L 405.526785 154.539888 
L 406.941911 154.539888 
L 406.941911 154.057437 
L 407.767402 154.057437 
L 407.767402 152.610084 
L 408.474965 152.610084 
L 408.474965 151.162731 
L 409.182528 151.162731 
L 409.182528 150.68028 
L 412.366561 150.68028 
L 412.366561 149.715378 
L 414.135469 149.715378 
L 414.135469 148.750476 
L 414.48925 148.750476 
L 414.48925 145.855771 
L 414.960959 145.855771 
L 414.960959 144.408418 
L 416.376085 144.408418 
L 416.376085 138.619006 
L 418.144993 138.619006 
L 418.144993 135.241849 
L 418.498774 135.241849 
L 418.498774 134.759398 
L 419.442191 134.759398 
L 419.442191 134.276947 
L 423.805497 134.276947 
L 423.805497 132.829594 
L 424.51306 132.829594 
L 424.51306 132.347143 
L 424.748914 132.347143 
L 424.748914 128.005084 
L 426.16404 128.005084 
L 426.16404 126.07528 
L 426.871603 126.07528 
L 426.871603 125.592829 
L 427.225385 125.592829 
L 427.225385 125.110378 
L 427.697093 125.110378 
L 427.697093 124.145476 
L 428.050875 124.145476 
L 428.050875 119.320967 
L 428.286729 119.320967 
L 428.286729 118.356065 
L 429.819782 118.356065 
L 429.819782 117.873614 
L 430.055637 117.873614 
L 430.055637 116.908712 
L 431.352836 116.908712 
L 431.352836 115.94381 
L 431.824544 115.94381 
L 431.824544 111.1193 
L 433.23967 111.1193 
L 433.23967 110.636849 
L 433.711379 110.636849 
L 433.711379 108.707045 
L 436.777486 108.707045 
L 436.777486 105.812339 
L 437.602976 105.812339 
L 437.602976 104.364986 
L 438.192612 104.364986 
L 438.192612 102.917633 
L 442.791771 102.917633 
L 442.791771 102.435182 
L 443.735189 102.435182 
L 443.735189 99.540476 
L 444.560679 99.540476 
L 444.560679 98.093123 
L 449.159838 98.093123 
L 449.159838 97.128222 
L 454.466561 97.128222 
L 454.466561 95.680869 
L 456.707177 95.680869 
L 456.707177 94.715967 
L 457.296813 94.715967 
L 457.296813 94.233516 
L 457.768522 94.233516 
L 457.768522 93.751065 
L 458.240231 93.751065 
L 458.240231 93.268614 
L 467.910259 93.268614 
L 467.910259 92.786163 
L 470.032948 92.786163 
L 470.032948 92.303712 
L 471.919782 92.303712 
L 471.919782 90.373908 
L 473.099054 90.373908 
L 473.099054 89.891457 
L 477.816141 89.891457 
L 477.816141 89.409006 
L 479.702976 89.409006 
L 479.702976 87.479202 
L 487.722023 87.479202 
L 487.722023 86.996751 
L 491.023984 86.996751 
L 491.023984 86.5143 
L 491.377766 86.5143 
L 491.377766 86.031849 
L 492.674965 86.031849 
L 492.674965 85.549398 
L 494.208018 85.549398 
L 494.208018 85.066947 
L 497.745833 85.066947 
L 497.745833 84.584496 
L 498.453396 84.584496 
L 498.453396 84.102045 
L 507.180007 84.102045 
L 507.180007 82.654692 
L 509.066841 82.654692 
L 509.066841 81.68979 
L 512.132948 81.68979 
L 512.132948 80.724888 
L 512.604656 80.724888 
L 512.604656 80.242437 
L 513.666001 80.242437 
L 513.666001 78.312633 
L 515.316981 78.312633 
L 515.316981 77.830182 
L 519.090651 77.830182 
L 519.090651 76.382829 
L 520.859558 76.382829 
L 520.859558 74.935476 
L 531.944712 74.935476 
L 531.944712 74.453025 
L 538.902416 74.453025 
L 538.902416 73.970574 
L 543.265721 73.970574 
L 543.265721 73.488123 
L 543.973284 73.488123 
L 543.973284 73.005672 
L 546.331827 73.005672 
L 546.331827 72.040771 
L 549.751715 72.040771 
L 549.751715 71.55832 
L 550.223424 71.55832 
L 550.223424 71.075869 
L 558.006617 71.075869 
L 558.006617 70.593418 
L 558.478326 70.593418 
L 558.478326 70.110967 
L 594.799895 70.110967 
L 594.799895 64.321555 
L 597.040511 64.321555 
L 597.040511 63.839104 
L 598.809418 63.839104 
L 598.809418 63.356653 
L 607.536029 63.356653 
L 607.536029 62.874202 
L 625.932668 62.874202 
L 625.932668 61.9093 
L 653.055917 61.9093 
L 653.055917 56.119888 
L 655.296533 56.119888 
L 655.296533 55.637437 
L 666.735469 55.637437 
L 666.735469 55.637437 
" clip-path="url(#p2a4ce01942)" style="fill: none; stroke: #3987e5; stroke-width: 2.2; stroke-linecap: square"/>
   </g>
   <g id="line2d_57">
    <path d="M 372.035469 213.398908 
L 372.153396 213.398908 
L 372.153396 212.916457 
L 372.507177 212.916457 
L 372.507177 211.951555 
L 372.625105 211.951555 
L 372.625105 211.469104 
L 373.922303 211.469104 
L 373.922303 210.986653 
L 374.040231 210.986653 
L 374.040231 210.504202 
L 374.983648 210.504202 
L 374.983648 210.021751 
L 375.219502 210.021751 
L 375.219502 209.5393 
L 375.455357 209.5393 
L 375.455357 208.574398 
L 376.280847 208.574398 
L 376.280847 208.091947 
L 376.98841 208.091947 
L 376.98841 203.267437 
L 377.695973 203.267437 
L 377.695973 198.925378 
L 377.8139 198.925378 
L 377.8139 197.478025 
L 377.931827 197.478025 
L 377.931827 196.995574 
L 378.285609 196.995574 
L 378.285609 195.548222 
L 378.521463 195.548222 
L 378.521463 193.135967 
L 378.63939 193.135967 
L 378.63939 191.688614 
L 378.993172 191.688614 
L 378.993172 185.899202 
L 379.111099 185.899202 
L 379.111099 185.416751 
L 379.346953 185.416751 
L 379.346953 184.9343 
L 379.700735 184.9343 
L 379.700735 184.451849 
L 379.936589 184.451849 
L 379.936589 183.969398 
L 380.172444 183.969398 
L 380.172444 183.486947 
L 380.526225 183.486947 
L 380.526225 182.522045 
L 380.997934 182.522045 
L 380.997934 182.039594 
L 381.469642 182.039594 
L 381.469642 181.557143 
L 381.705497 181.557143 
L 381.705497 180.10979 
L 382.177205 180.10979 
L 382.177205 179.627339 
L 382.766841 179.627339 
L 382.766841 178.662437 
L 383.120623 178.662437 
L 383.120623 178.179986 
L 383.828186 178.179986 
L 383.828186 174.320378 
L 383.946113 174.320378 
L 383.946113 169.97832 
L 384.299895 169.97832 
L 384.299895 169.495869 
L 384.417822 169.495869 
L 384.417822 169.013418 
L 384.653676 169.013418 
L 384.653676 165.15381 
L 384.88953 165.15381 
L 384.88953 162.259104 
L 386.068802 162.259104 
L 386.068802 161.776653 
L 386.186729 161.776653 
L 386.186729 161.294202 
L 386.304656 161.294202 
L 386.304656 159.846849 
L 386.658438 159.846849 
L 386.658438 159.364398 
L 386.894292 159.364398 
L 386.894292 158.881947 
L 387.366001 158.881947 
L 387.366001 158.399496 
L 387.719782 158.399496 
L 387.719782 157.917045 
L 388.427346 157.917045 
L 388.427346 155.50479 
L 388.781127 155.50479 
L 388.781127 154.539888 
L 390.196253 154.539888 
L 390.196253 153.092535 
L 391.257598 153.092535 
L 391.257598 152.127633 
L 392.554796 152.127633 
L 392.554796 151.645182 
L 393.851995 151.645182 
L 393.851995 151.162731 
L 394.559558 151.162731 
L 394.559558 148.268025 
L 395.385049 148.268025 
L 395.385049 147.785574 
L 396.446393 147.785574 
L 396.446393 147.303123 
L 397.153956 147.303123 
L 397.153956 146.820672 
L 400.809698 146.820672 
L 400.809698 146.338222 
L 401.045553 146.338222 
L 401.045553 145.37332 
L 404.937149 145.37332 
L 404.937149 143.925967 
L 409.418382 143.925967 
L 409.418382 141.996163 
L 410.125945 141.996163 
L 410.125945 141.513712 
L 410.597654 141.513712 
L 410.597654 141.031261 
L 410.833508 141.031261 
L 410.833508 139.583908 
L 411.541071 139.583908 
L 411.541071 139.101457 
L 412.248634 139.101457 
L 412.248634 136.689202 
L 414.371323 136.689202 
L 414.371323 136.206751 
L 417.673284 136.206751 
L 417.673284 135.7243 
L 418.144993 135.7243 
L 418.144993 135.241849 
L 418.380847 135.241849 
L 418.380847 133.794496 
L 419.560119 133.794496 
L 419.560119 132.347143 
L 424.395133 132.347143 
L 424.395133 128.487535 
L 424.630987 128.487535 
L 424.630987 128.005084 
L 425.692331 128.005084 
L 425.692331 126.557731 
L 426.517822 126.557731 
L 426.517822 126.07528 
L 426.753676 126.07528 
L 426.753676 125.592829 
L 427.461239 125.592829 
L 427.461239 125.110378 
L 444.08897 125.110378 
L 444.08897 121.733222 
L 446.801295 121.733222 
L 446.801295 121.250771 
L 454.230707 121.250771 
L 454.230707 120.76832 
L 458.358158 120.76832 
L 458.358158 120.285869 
L 483.594572 120.285869 
L 483.594572 119.803418 
L 487.250315 119.803418 
L 487.250315 119.320967 
L 489.373004 119.320967 
L 489.373004 118.838516 
L 490.670203 118.838516 
L 490.670203 117.873614 
L 495.976925 117.873614 
L 495.976925 117.391163 
L 502.109138 117.391163 
L 502.109138 116.908712 
L 509.774404 116.908712 
L 509.774404 115.94381 
L 510.481967 115.94381 
L 510.481967 114.978908 
L 511.18953 114.978908 
L 511.18953 114.014006 
L 532.770203 114.014006 
L 532.770203 112.566653 
L 545.152556 112.566653 
L 545.152556 112.084202 
L 559.421743 112.084202 
L 559.421743 109.671947 
L 559.657598 109.671947 
L 559.657598 107.259692 
L 561.308578 107.259692 
L 561.308578 105.812339 
L 565.200175 105.812339 
L 565.200175 105.329888 
L 567.087009 105.329888 
L 567.087009 104.847437 
L 571.21446 104.847437 
L 571.21446 104.364986 
L 616.380567 104.364986 
L 616.380567 102.917633 
L 656.122023 102.917633 
L 656.122023 101.47028 
L 666.735469 101.47028 
L 666.735469 101.47028 
" clip-path="url(#p2a4ce01942)" style="fill: none; stroke: #d95926; stroke-width: 1.5; stroke-linecap: square"/>
   </g>
   <g id="line2d_58">
    <path d="M 372.035469 213.398908 
L 372.153396 213.398908 
L 372.153396 211.951555 
L 372.271323 211.951555 
L 372.271323 210.986653 
L 372.38925 210.986653 
L 372.38925 210.504202 
L 372.743032 210.504202 
L 372.743032 210.021751 
L 373.922303 210.021751 
L 373.922303 209.5393 
L 374.629867 209.5393 
L 374.629867 209.056849 
L 374.983648 209.056849 
L 374.983648 208.574398 
L 375.33743 208.574398 
L 375.33743 208.091947 
L 376.16292 208.091947 
L 376.16292 207.609496 
L 376.516701 207.609496 
L 376.516701 207.127045 
L 377.106337 207.127045 
L 377.106337 206.644594 
L 377.224264 206.644594 
L 377.224264 206.162143 
L 378.403536 206.162143 
L 378.403536 205.679692 
L 379.229026 205.679692 
L 379.229026 205.197241 
L 379.346953 205.197241 
L 379.346953 204.71479 
L 379.464881 204.71479 
L 379.464881 203.267437 
L 379.936589 203.267437 
L 379.936589 201.820084 
L 380.526225 201.820084 
L 380.526225 201.337633 
L 380.644152 201.337633 
L 380.644152 200.855182 
L 381.115861 200.855182 
L 381.115861 200.372731 
L 381.233788 200.372731 
L 381.233788 199.407829 
L 382.648914 199.407829 
L 382.648914 197.960476 
L 382.884768 197.960476 
L 382.884768 197.478025 
L 383.120623 197.478025 
L 383.120623 196.995574 
L 383.356477 196.995574 
L 383.356477 196.513123 
L 383.592331 196.513123 
L 383.592331 195.548222 
L 384.535749 195.548222 
L 384.535749 195.065771 
L 385.007458 195.065771 
L 385.007458 192.653516 
L 385.243312 192.653516 
L 385.243312 191.688614 
L 385.479166 191.688614 
L 385.479166 190.241261 
L 385.597093 190.241261 
L 385.597093 184.451849 
L 385.832948 184.451849 
L 385.832948 183.486947 
L 386.186729 183.486947 
L 386.186729 183.004496 
L 386.422584 183.004496 
L 386.422584 182.522045 
L 386.776365 182.522045 
L 386.776365 181.557143 
L 387.601855 181.557143 
L 387.601855 181.074692 
L 387.83771 181.074692 
L 387.83771 180.10979 
L 388.073564 180.10979 
L 388.073564 178.662437 
L 388.427346 178.662437 
L 388.427346 178.179986 
L 388.545273 178.179986 
L 388.545273 177.697535 
L 389.48869 177.697535 
L 389.48869 177.215084 
L 390.667962 177.215084 
L 390.667962 173.837927 
L 391.257598 173.837927 
L 391.257598 168.048516 
L 391.493452 168.048516 
L 391.493452 163.224006 
L 391.729306 163.224006 
L 391.729306 157.434594 
L 391.847233 157.434594 
L 391.847233 156.952143 
L 391.965161 156.952143 
L 391.965161 156.469692 
L 392.201015 156.469692 
L 392.201015 149.232927 
L 392.436869 149.232927 
L 392.436869 148.268025 
L 392.790651 148.268025 
L 392.790651 147.785574 
L 393.734068 147.785574 
L 393.734068 147.303123 
L 395.385049 147.303123 
L 395.385049 146.820672 
L 396.328466 146.820672 
L 396.328466 143.443516 
L 396.446393 143.443516 
L 396.446393 141.513712 
L 396.918102 141.513712 
L 396.918102 138.136555 
L 398.097374 138.136555 
L 398.097374 135.7243 
L 398.215301 135.7243 
L 398.215301 133.794496 
L 398.569082 133.794496 
L 398.569082 133.312045 
L 399.394572 133.312045 
L 399.394572 126.557731 
L 400.102135 126.557731 
L 400.102135 118.356065 
L 401.16348 118.356065 
L 401.16348 113.049104 
L 403.286169 113.049104 
L 403.286169 108.707045 
L 406.58813 108.707045 
L 406.58813 108.224594 
L 413.545833 108.224594 
L 413.545833 107.259692 
L 413.899614 107.259692 
L 413.899614 106.777241 
L 414.253396 106.777241 
L 414.253396 104.364986 
L 415.904376 104.364986 
L 415.904376 102.917633 
L 418.380847 102.917633 
L 418.380847 102.435182 
L 420.621463 102.435182 
L 420.621463 100.987829 
L 421.329026 100.987829 
L 421.329026 100.505378 
L 423.451715 100.505378 
L 423.451715 96.16332 
L 430.999054 96.16332 
L 430.999054 95.680869 
L 431.470763 95.680869 
L 431.470763 94.233516 
L 432.650035 94.233516 
L 432.650035 92.303712 
L 433.003816 92.303712 
L 433.003816 91.821261 
L 434.772724 91.821261 
L 434.772724 91.33881 
L 435.008578 91.33881 
L 435.008578 90.856359 
L 439.018102 90.856359 
L 439.018102 90.373908 
L 440.787009 90.373908 
L 440.787009 89.891457 
L 442.202135 89.891457 
L 442.202135 89.409006 
L 443.499334 89.409006 
L 443.499334 88.926555 
L 445.622023 88.926555 
L 445.622023 88.444104 
L 445.739951 88.444104 
L 445.739951 87.961653 
L 449.631547 87.961653 
L 449.631547 87.479202 
L 453.051435 87.479202 
L 453.051435 86.996751 
L 455.056197 86.996751 
L 455.056197 84.102045 
L 460.244993 84.102045 
L 460.244993 83.619594 
L 463.900735 83.619594 
L 463.900735 83.137143 
L 464.490371 83.137143 
L 464.490371 82.654692 
L 466.966841 82.654692 
L 466.966841 81.207339 
L 469.08953 81.207339 
L 469.08953 80.724888 
L 471.919782 80.724888 
L 471.919782 80.242437 
L 475.811379 80.242437 
L 475.811379 79.759986 
L 476.518942 79.759986 
L 476.518942 79.277535 
L 480.292612 79.277535 
L 480.292612 78.795084 
L 486.18897 78.795084 
L 486.18897 78.312633 
L 490.670203 78.312633 
L 490.670203 76.86528 
L 493.028746 76.86528 
L 493.028746 76.382829 
L 494.797654 76.382829 
L 494.797654 75.900378 
L 502.580847 75.900378 
L 502.580847 75.417927 
L 507.769642 75.417927 
L 507.769642 74.935476 
L 508.595133 74.935476 
L 508.595133 73.970574 
L 512.250875 73.970574 
L 512.250875 73.488123 
L 515.316981 73.488123 
L 515.316981 72.523222 
L 518.618942 72.523222 
L 518.618942 71.075869 
L 529.11446 71.075869 
L 529.11446 69.628516 
L 529.350315 69.628516 
L 529.350315 68.181163 
L 533.949474 68.181163 
L 533.949474 67.216261 
L 538.548634 67.216261 
L 538.548634 65.768908 
L 666.735469 65.768908 
L 666.735469 65.768908 
" clip-path="url(#p2a4ce01942)" style="fill: none; stroke: #199e70; stroke-width: 1.5; stroke-linecap: square"/>
   </g>
   <g id="line2d_59">
    <path d="M 372.035469 197.960476 
L 375.101575 197.960476 
L 375.101575 195.548222 
L 375.455357 195.548222 
L 375.455357 190.723712 
L 375.573284 190.723712 
L 375.573284 152.127633 
L 381.233788 152.127633 
L 381.233788 149.715378 
L 382.530987 149.715378 
L 382.530987 142.478614 
L 382.884768 142.478614 
L 382.884768 137.654104 
L 384.535749 137.654104 
L 384.535749 108.707045 
L 385.243312 108.707045 
L 385.243312 103.882535 
L 387.83771 103.882535 
L 387.83771 99.058025 
L 389.48869 99.058025 
L 389.48869 79.759986 
L 398.687009 79.759986 
L 398.687009 77.347731 
L 399.630427 77.347731 
L 399.630427 74.935476 
L 400.33799 74.935476 
L 400.33799 72.523222 
L 407.059838 72.523222 
L 407.059838 65.286457 
L 666.735469 65.286457 
L 666.735469 65.286457 
" clip-path="url(#p2a4ce01942)" style="fill: none; stroke: #c98500; stroke-width: 1.5; stroke-linecap: square"/>
   </g>
   <g id="line2d_60">
    <path d="M 372.035469 215.328712 
L 372.153396 215.328712 
L 372.153396 214.36381 
L 372.271323 214.36381 
L 372.271323 213.881359 
L 372.38925 213.881359 
L 372.38925 213.398908 
L 372.507177 213.398908 
L 372.507177 212.916457 
L 372.743032 212.916457 
L 372.743032 211.951555 
L 375.101575 211.951555 
L 375.101575 210.504202 
L 375.33743 210.504202 
L 375.33743 210.021751 
L 375.691211 210.021751 
L 375.691211 209.5393 
L 375.927065 209.5393 
L 375.927065 209.056849 
L 376.516701 209.056849 
L 376.516701 208.574398 
L 376.634628 208.574398 
L 376.634628 207.609496 
L 376.870483 207.609496 
L 376.870483 203.749888 
L 377.342191 203.749888 
L 377.342191 202.784986 
L 377.460119 202.784986 
L 377.460119 201.820084 
L 377.695973 201.820084 
L 377.695973 201.337633 
L 377.8139 201.337633 
L 377.8139 200.372731 
L 377.931827 200.372731 
L 377.931827 198.925378 
L 378.403536 198.925378 
L 378.403536 196.995574 
L 378.521463 196.995574 
L 378.521463 187.346555 
L 378.63939 187.346555 
L 378.63939 186.381653 
L 378.993172 186.381653 
L 378.993172 185.899202 
L 379.111099 185.899202 
L 379.111099 184.9343 
L 379.229026 184.9343 
L 379.229026 180.10979 
L 379.346953 180.10979 
L 379.346953 174.320378 
L 379.464881 174.320378 
L 379.464881 171.908123 
L 379.700735 171.908123 
L 379.700735 169.97832 
L 379.936589 169.97832 
L 379.936589 167.083614 
L 380.408298 167.083614 
L 380.408298 166.601163 
L 380.526225 166.601163 
L 380.526225 166.118712 
L 380.762079 166.118712 
L 380.762079 164.671359 
L 380.880007 164.671359 
L 380.880007 164.188908 
L 380.997934 164.188908 
L 380.997934 163.224006 
L 381.469642 163.224006 
L 381.469642 162.741555 
L 381.823424 162.741555 
L 381.823424 160.3293 
L 381.941351 160.3293 
L 381.941351 158.881947 
L 382.177205 158.881947 
L 382.177205 158.399496 
L 382.41306 158.399496 
L 382.41306 154.057437 
L 382.530987 154.057437 
L 382.530987 147.785574 
L 382.884768 147.785574 
L 382.884768 146.820672 
L 383.474404 146.820672 
L 383.474404 146.338222 
L 383.592331 146.338222 
L 383.592331 145.855771 
L 383.946113 145.855771 
L 383.946113 142.961065 
L 384.181967 142.961065 
L 384.181967 138.136555 
L 384.299895 138.136555 
L 384.299895 136.689202 
L 384.417822 136.689202 
L 384.417822 131.864692 
L 385.007458 131.864692 
L 385.007458 130.89979 
L 385.125385 130.89979 
L 385.125385 130.417339 
L 385.243312 130.417339 
L 385.243312 128.969986 
L 385.479166 128.969986 
L 385.479166 124.627927 
L 385.832948 124.627927 
L 385.832948 124.145476 
L 386.540511 124.145476 
L 386.540511 122.698123 
L 389.370763 122.698123 
L 389.370763 121.733222 
L 389.48869 121.733222 
L 389.48869 121.250771 
L 389.606617 121.250771 
L 389.606617 116.908712 
L 390.078326 116.908712 
L 390.078326 116.426261 
L 390.432107 116.426261 
L 390.432107 115.461359 
L 391.375525 115.461359 
L 391.375525 113.531555 
L 391.611379 113.531555 
L 391.611379 109.189496 
L 395.974684 109.189496 
L 395.974684 107.742143 
L 396.092612 107.742143 
L 396.092612 106.777241 
L 396.682247 106.777241 
L 396.682247 105.329888 
L 398.333228 105.329888 
L 398.333228 104.847437 
L 398.687009 104.847437 
L 398.687009 104.364986 
L 401.16348 104.364986 
L 401.16348 102.917633 
L 401.517261 102.917633 
L 401.517261 101.47028 
L 402.460679 101.47028 
L 402.460679 100.987829 
L 403.168242 100.987829 
L 403.168242 100.505378 
L 405.055077 100.505378 
L 405.055077 100.022927 
L 412.956197 100.022927 
L 412.956197 99.540476 
L 413.309979 99.540476 
L 413.309979 99.058025 
L 420.031827 99.058025 
L 420.031827 98.575574 
L 420.857317 98.575574 
L 420.857317 96.645771 
L 425.692331 96.645771 
L 425.692331 96.16332 
L 427.107458 96.16332 
L 427.107458 94.715967 
L 430.881127 94.715967 
L 430.881127 94.715967 
" clip-path="url(#p2a4ce01942)" style="fill: none; stroke: #d55181; stroke-width: 1.5; stroke-linecap: square"/>
   </g>
   <g id="line2d_61">
    <path d="M 430.881127 94.715967 
" clip-path="url(#p2a4ce01942)" style="fill: none; stroke: #d55181; stroke-width: 1.5; stroke-linecap: square"/>
    <g clip-path="url(#p2a4ce01942)">
     <use xlink:href="#mfc20bdc0fe" x="430.881127" y="94.715967" style="fill: #d55181; stroke: #d55181"/>
    </g>
   </g>
   <g id="patch_6">
    <path d="M 372.035469 217.258516 
L 372.035469 20.418516 
" style="fill: none; stroke: #c9d1d9; stroke-width: 0.8; stroke-linejoin: miter; stroke-linecap: square"/>
   </g>
   <g id="patch_7">
    <path d="M 372.035469 217.258516 
L 666.735469 217.258516 
" style="fill: none; stroke: #c9d1d9; stroke-width: 0.8; stroke-linejoin: miter; stroke-linecap: square"/>
   </g>
   <g id="text_26">
    <text style="font-size: 9.5px; font-family: 'DejaVu Sans', 'Bitstream Vera Sans', 'Computer Modern Sans Serif', 'Lucida Grande', 'Verdana', 'Geneva', 'Lucid', 'Arial', 'Helvetica', 'Avant Garde', sans-serif; text-anchor: middle; fill: #c9d1d9" x="519.385469" y="14.418516" transform="rotate(-0 519.385469 14.418516)">5 variables: best target the optimum on 3 of 4</text>
   </g>
   <g id="legend_2">
    <g id="line2d_62">
     <path d="M 503.520625 165.953984 
L 510.520625 165.953984 
L 510.520625 165.953984 
L 517.520625 165.953984 
L 517.520625 165.953984 
" style="fill: none; stroke: #3987e5; stroke-width: 2.2; stroke-linecap: square"/>
    </g>
    <g id="text_27">
     <text style="font-size: 7px; font-family: 'DejaVu Sans', 'Bitstream Vera Sans', 'Computer Modern Sans Serif', 'Lucida Grande', 'Verdana', 'Geneva', 'Lucid', 'Arial', 'Helvetica', 'Avant Garde', sans-serif; text-anchor: start; fill: #c9d1d9" x="523.120625" y="168.403984" transform="rotate(-0 523.120625 168.403984)">box subdivision: swept, 10 per variable</text>
    </g>
    <g id="line2d_63">
     <path d="M 503.520625 176.228672 
L 510.520625 176.228672 
L 510.520625 176.228672 
L 517.520625 176.228672 
L 517.520625 176.228672 
" style="fill: none; stroke: #d95926; stroke-width: 1.5; stroke-linecap: square"/>
    </g>
    <g id="text_28">
     <text style="font-size: 7px; font-family: 'DejaVu Sans', 'Bitstream Vera Sans', 'Computer Modern Sans Serif', 'Lucida Grande', 'Verdana', 'Geneva', 'Lucid', 'Arial', 'Helvetica', 'Avant Garde', sans-serif; text-anchor: start; fill: #c9d1d9" x="523.120625" y="178.678672" transform="rotate(-0 523.120625 178.678672)">multistart</text>
    </g>
    <g id="line2d_64">
     <path d="M 503.520625 186.503359 
L 510.520625 186.503359 
L 510.520625 186.503359 
L 517.520625 186.503359 
L 517.520625 186.503359 
" style="fill: none; stroke: #199e70; stroke-width: 1.5; stroke-linecap: square"/>
    </g>
    <g id="text_29">
     <text style="font-size: 7px; font-family: 'DejaVu Sans', 'Bitstream Vera Sans', 'Computer Modern Sans Serif', 'Lucida Grande', 'Verdana', 'Geneva', 'Lucid', 'Arial', 'Helvetica', 'Avant Garde', sans-serif; text-anchor: start; fill: #c9d1d9" x="523.120625" y="188.953359" transform="rotate(-0 523.120625 188.953359)">CMA-ES</text>
    </g>
    <g id="line2d_65">
     <path d="M 503.520625 196.778047 
L 510.520625 196.778047 
L 510.520625 196.778047 
L 517.520625 196.778047 
L 517.520625 196.778047 
" style="fill: none; stroke: #c98500; stroke-width: 1.5; stroke-linecap: square"/>
    </g>
    <g id="text_30">
     <text style="font-size: 7px; font-family: 'DejaVu Sans', 'Bitstream Vera Sans', 'Computer Modern Sans Serif', 'Lucida Grande', 'Verdana', 'Geneva', 'Lucid', 'Arial', 'Helvetica', 'Avant Garde', sans-serif; text-anchor: start; fill: #c9d1d9" x="523.120625" y="199.228047" transform="rotate(-0 523.120625 199.228047)">DIRECT</text>
    </g>
    <g id="line2d_66">
     <path d="M 503.520625 207.052734 
L 510.520625 207.052734 
L 510.520625 207.052734 
L 517.520625 207.052734 
L 517.520625 207.052734 
" style="fill: none; stroke: #d55181; stroke-width: 1.5; stroke-linecap: square"/>
    </g>
    <g id="text_31">
     <text style="font-size: 7px; font-family: 'DejaVu Sans', 'Bitstream Vera Sans', 'Computer Modern Sans Serif', 'Lucida Grande', 'Verdana', 'Geneva', 'Lucid', 'Arial', 'Helvetica', 'Avant Garde', sans-serif; text-anchor: start; fill: #c9d1d9" x="523.120625" y="209.502734" transform="rotate(-0 523.120625 209.502734)">EGO</text>
    </g>
   </g>
  </g>
 </g>
 <defs>
  <clipPath id="p95aebbe575">
   <rect x="52.640469" y="20.418516" width="294.7" height="196.84"/>
  </clipPath>
  <clipPath id="p2a4ce01942">
   <rect x="372.035469" y="20.418516" width="294.7" height="196.84"/>
  </clipPath>
 </defs>
</svg>
